# xmcd
#
# Track frame offsets: 
#        150
#        13950
#        34425
#        52350
#        66345
#        86520
#
# Disc length: 1353 seconds
#
# Revision: 0
# Processed by: cddbd v1.5.2PL0 Copyright (c) Steve Scherf et al.
# Submitted via: ExactAudioCopy v0.95b4
#
DISCID=58054706
DTITLE=Cari Golden - carigolden
DYEAR=2003
DGENRE=Country
TTITLE0=hearts on fire
TTITLE1=i'll be there
TTITLE2=grand ole opry
TTITLE3=paradise
TTITLE4=tonight is the night
TTITLE5=go all the way
EXTD=
EXTT0=
EXTT1=
EXTT2=
EXTT3=
EXTT4=
EXTT5=
PLAYORDER=
